<?xml version="1.0" standalone="no"?>
<!DOCTYPE svg PUBLIC "-//W3C//DTD SVG 20010904//EN"
 "http://www.w3.org/TR/2001/REC-SVG-20010904/DTD/svg10.dtd">
<svg version="1.0" xmlns="http://www.w3.org/2000/svg"
 width="338.000000pt" height="434.000000pt" viewBox="0 0 338.000000 434.000000"
 preserveAspectRatio="xMidYMid meet">
<metadata>
Created by potrace 1.16, written by Peter Selinger 2001-2019
</metadata>
<g transform="translate(0.000000,434.000000) scale(0.100000,-0.100000)"
fill="#000000" stroke="none">
<path d="M1955 4307 c-319 -82 -516 -414 -435 -731 51 -201 190 -355 386 -428
51 -19 79 -23 199 -23 120 0 148 4 199 23 196 73 335 227 386 428 76 298 -92
609 -386 716 -73 26 -270 35 -349 15z"/>
<path d="M590 2704 c-81 -17 -206 -77 -287 -137 -119 -89 -227 -251 -270 -407
-24 -90 -24 -290 0 -380 43 -156 151 -318 270 -407 83 -61 207 -120 292 -138
90 -19 250 -19 340 0 209 44 407 201 504 399 60 122 75 190 75 336 0 146 -15
214 -75 336 -97 198 -295 355 -504 399 -87 18 -259 18 -345 -1z"/>
<path d="M2365 1601 c-269 -68 -481 -260 -570 -518 -157 -452 115 -940 583
-1047 92 -21 262 -21 354 0 468 107 740 595 583 1047 -91 262 -312 459 -583
521 -96 22 -275 20 -367 -3z"/>
</g>
</svg>
